STARTFONT 2.1
FONT -ucw.cz-Haxor-Medium-R-Normal--13-120-72-72-C-72-iso8859-2
SIZE 13 72 72
FONTBOUNDINGBOX 9 15 0 -3
STARTPROPERTIES 16
POINT_SIZE 120
PIXEL_SIZE 12
RESOLUTION_X 72
RESOLUTION_Y 72
FONT_ASCENT 12
FONT_DESCENT 3
AVERAGE_WIDTH 72
SPACING "C"
_GBDFED_INFO "Edited with gbdfed 1.5."
CHARSET_ENCODING "2"
CHARSET_REGISTRY "iso8859"
FAMILY_NAME "Haxor"
FOUNDRY "ucw.cz"
SETWIDTH_NAME "Normal"
SLANT "R"
WEIGHT_NAME "Medium"
ENDPROPERTIES
CHARS 199
STARTCHAR char0
ENCODING 0
SWIDTH 692 0
DWIDTH 9 0
BBX 9 15 0 -3
BITMAP
FF80
FF80
FF80
FF80
FF80
FF80
FF80
FF80
FF80
FF80
FF80
FF80
0000
0000
0000
ENDCHAR
STARTCHAR char1
ENCODING 1
SWIDTH 692 0
DWIDTH 9 0
BBX 9 15 0 -3
BITMAP
0000
0800
1C00
3E00
7F00
FF80
7F00
3E00
1C00
0800
0000
0000
0000
0000
0000
ENDCHAR
STARTCHAR char2
ENCODING 2
SWIDTH 692 0
DWIDTH 9 0
BBX 9 15 0 -3
BITMAP
AA80
5500
AA80
5500
AA80
5500
AA80
5500
AA80
5500
AA80
5500
0000
0000
0000
ENDCHAR
STARTCHAR char11
ENCODING 11
SWIDTH 692 0
DWIDTH 9 0
BBX 9 15 0 -3
BITMAP
0800
0800
0800
0800
0800
0800
1000
E000
0000
0000
0000
0000
0000
0000
0000
ENDCHAR
STARTCHAR char12
ENCODING 12
SWIDTH 692 0
DWIDTH 9 0
BBX 9 15 0 -3
BITMAP
0000
0000
0000
0000
0000
0000
0000
E000
1000
0800
0800
0800
0800
0800
0800
ENDCHAR
STARTCHAR char13
ENCODING 13
SWIDTH 692 0
DWIDTH 9 0
BBX 9 15 0 -3
BITMAP
0000
0000
0000
0000
0000
0000
0000
0380
0400
0800
0800
0800
0800
0800
0800
ENDCHAR
STARTCHAR char14
ENCODING 14
SWIDTH 692 0
DWIDTH 9 0
BBX 9 15 0 -3
BITMAP
0800
0800
0800
0800
0800
0800
0400
0380
0000
0000
0000
0000
0000
0000
0000
ENDCHAR
STARTCHAR char15
ENCODING 15
SWIDTH 692 0
DWIDTH 9 0
BBX 9 15 0 -3
BITMAP
0800
0800
0800
0800
0800
0800
1400
E380
1400
0800
0800
0800
0800
0800
0800
ENDCHAR
STARTCHAR char16
ENCODING 16
SWIDTH 692 0
DWIDTH 9 0
BBX 9 15 0 -3
BITMAP
FF80
0000
0000
0000
0000
0000
0000
0000
0000
0000
0000
0000
0000
0000
0000
ENDCHAR
STARTCHAR char17
ENCODING 17
SWIDTH 692 0
DWIDTH 9 0
BBX 9 15 0 -3
BITMAP
0000
0000
0000
0000
FF80
0000
0000
0000
0000
0000
0000
0000
0000
0000
0000
ENDCHAR
STARTCHAR char18
ENCODING 18
SWIDTH 692 0
DWIDTH 9 0
BBX 9 15 0 -3
BITMAP
0000
0000
0000
0000
0000
0000
0000
FF80
0000
0000
0000
0000
0000
0000
0000
ENDCHAR
STARTCHAR char19
ENCODING 19
SWIDTH 692 0
DWIDTH 9 0
BBX 9 15 0 -3
BITMAP
0000
0000
0000
0000
0000
0000
0000
0000
0000
FF80
0000
0000
0000
0000
0000
ENDCHAR
STARTCHAR char20
ENCODING 20
SWIDTH 692 0
DWIDTH 9 0
BBX 9 15 0 -3
BITMAP
0000
0000
0000
0000
0000
0000
0000
0000
0000
0000
0000
FF80
0000
0000
0000
ENDCHAR
STARTCHAR char21
ENCODING 21
SWIDTH 692 0
DWIDTH 9 0
BBX 9 15 0 -3
BITMAP
0800
0800
0800
0800
0800
0800
0400
0380
0400
0800
0800
0800
0800
0800
0800
ENDCHAR
STARTCHAR char22
ENCODING 22
SWIDTH 692 0
DWIDTH 9 0
BBX 9 15 0 -3
BITMAP
0800
0800
0800
0800
0800
0800
1000
E000
1000
0800
0800
0800
0800
0800
0800
ENDCHAR
STARTCHAR char23
ENCODING 23
SWIDTH 692 0
DWIDTH 9 0
BBX 9 15 0 -3
BITMAP
0800
0800
0800
0800
0800
0800
1400
E380
0000
0000
0000
0000
0000
0000
0000
ENDCHAR
STARTCHAR char24
ENCODING 24
SWIDTH 692 0
DWIDTH 9 0
BBX 9 15 0 -3
BITMAP
0000
0000
0000
0000
0000
0000
0000
E380
1400
0800
0800
0800
0800
0800
0800
ENDCHAR
STARTCHAR char25
ENCODING 25
SWIDTH 692 0
DWIDTH 9 0
BBX 9 15 0 -3
BITMAP
0800
0800
0800
0800
0800
0800
0800
0800
0800
0800
0800
0800
0800
0800
0800
ENDCHAR
STARTCHAR space
ENCODING 32
SWIDTH 692 0
DWIDTH 9 0
BBX 9 15 0 -3
BITMAP
0000
0000
0000
0000
0000
0000
0000
0000
0000
0000
0000
0000
0000
0000
0000
ENDCHAR
STARTCHAR exclam
ENCODING 33
SWIDTH 692 0
DWIDTH 9 0
BBX 9 15 0 -3
BITMAP
0000
0800
0800
0800
0800
0800
0800
0800
0800
0000
0800
0800
0000
0000
0000
ENDCHAR
STARTCHAR char34
ENCODING 34
SWIDTH 692 0
DWIDTH 9 0
BBX 9 15 0 -3
BITMAP
0000
0000
7700
1100
1100
2200
0000
0000
0000
0000
0000
0000
0000
0000
0000
ENDCHAR
STARTCHAR hash
ENCODING 35
SWIDTH 692 0
DWIDTH 9 0
BBX 9 15 0 -3
BITMAP
0000
0000
0000
0000
1200
1200
7F00
2400
2400
FE00
4800
4800
0000
0000
0000
ENDCHAR
STARTCHAR dolar
ENCODING 36
SWIDTH 692 0
DWIDTH 9 0
BBX 9 15 0 -3
BITMAP
0000
1000
7C00
9200
9000
9000
7C00
1200
1200
9200
7C00
1000
0000
0000
0000
ENDCHAR
STARTCHAR char37
ENCODING 37
SWIDTH 692 0
DWIDTH 9 0
BBX 9 15 0 -3
BITMAP
0000
0000
6000
9100
9200
6400
0800
1000
2600
4900
8900
0600
0000
0000
0000
ENDCHAR
STARTCHAR amp
ENCODING 38
SWIDTH 692 0
DWIDTH 9 0
BBX 9 15 0 -3
BITMAP
0000
0000
0000
3000
4800
4800
3000
5000
8A00
8400
8A00
7000
0000
0000
0000
ENDCHAR
STARTCHAR char39
ENCODING 39
SWIDTH 692 0
DWIDTH 9 0
BBX 9 15 0 -3
BITMAP
0000
0000
3000
1000
1000
2000
0000
0000
0000
0000
0000
0000
0000
0000
0000
ENDCHAR
STARTCHAR char40
ENCODING 40
SWIDTH 692 0
DWIDTH 9 0
BBX 9 15 0 -3
BITMAP
0000
0000
1000
2000
2000
2000
2000
2000
2000
2000
2000
1000
0000
0000
0000
ENDCHAR
STARTCHAR char41
ENCODING 41
SWIDTH 692 0
DWIDTH 9 0
BBX 9 15 0 -3
BITMAP
0000
0000
1000
0800
0800
0800
0800
0800
0800
0800
0800
1000
0000
0000
0000
ENDCHAR
STARTCHAR asterisk
ENCODING 42
SWIDTH 692 0
DWIDTH 9 0
BBX 9 15 0 -3
BITMAP
0000
0000
0000
0000
1000
5400
3800
1000
3800
5400
1000
0000
0000
0000
0000
ENDCHAR
STARTCHAR plus
ENCODING 43
SWIDTH 692 0
DWIDTH 9 0
BBX 9 15 0 -3
BITMAP
0000
0000
0000
0000
1000
1000
1000
FE00
1000
1000
1000
0000
0000
0000
0000
ENDCHAR
STARTCHAR char44
ENCODING 44
SWIDTH 692 0
DWIDTH 9 0
BBX 9 15 0 -3
BITMAP
0000
0000
0000
0000
0000
0000
0000
0000
0000
3000
1000
1000
2000
0000
0000
ENDCHAR
STARTCHAR char45
ENCODING 45
SWIDTH 692 0
DWIDTH 9 0
BBX 9 15 0 -3
BITMAP
0000
0000
0000
0000
0000
0000
0000
7E00
0000
0000
0000
0000
0000
0000
0000
ENDCHAR
STARTCHAR char46
ENCODING 46
SWIDTH 692 0
DWIDTH 9 0
BBX 9 15 0 -3
BITMAP
0000
0000
0000
0000
0000
0000
0000
0000
0000
0000
3000
3000
0000
0000
0000
ENDCHAR
STARTCHAR char47
ENCODING 47
SWIDTH 692 0
DWIDTH 9 0
BBX 9 15 0 -3
BITMAP
0000
0000
0400
0800
0800
1000
1000
2000
2000
4000
4000
8000
0000
0000
0000
ENDCHAR
STARTCHAR char48
ENCODING 48
SWIDTH 692 0
DWIDTH 9 0
BBX 9 15 0 -3
BITMAP
0000
0000
3C00
4200
4200
4600
4A00
5200
6200
4200
4200
3C00
0000
0000
0000
ENDCHAR
STARTCHAR char49
ENCODING 49
SWIDTH 692 0
DWIDTH 9 0
BBX 9 15 0 -3
BITMAP
0000
0000
0800
1800
2800
0800
0800
0800
0800
0800
0800
3E00
0000
0000
0000
ENDCHAR
STARTCHAR char50
ENCODING 50
SWIDTH 692 0
DWIDTH 9 0
BBX 9 15 0 -3
BITMAP
0000
0000
3C00
4200
4200
0200
0400
0800
1000
2000
4000
7E00
0000
0000
0000
ENDCHAR
STARTCHAR char51
ENCODING 51
SWIDTH 692 0
DWIDTH 9 0
BBX 9 15 0 -3
BITMAP
0000
0000
3C00
4200
0200
0200
1C00
0200
0200
0200
4200
3C00
0000
0000
0000
ENDCHAR
STARTCHAR char52
ENCODING 52
SWIDTH 692 0
DWIDTH 9 0
BBX 9 15 0 -3
BITMAP
0000
0000
0400
0C00
1400
2400
4400
7E00
0400
0400
0400
0400
0000
0000
0000
ENDCHAR
STARTCHAR char53
ENCODING 53
SWIDTH 692 0
DWIDTH 9 0
BBX 9 15 0 -3
BITMAP
0000
0000
7E00
4000
4000
4000
7C00
0200
0200
0200
4200
3C00
0000
0000
0000
ENDCHAR
STARTCHAR char54
ENCODING 54
SWIDTH 692 0
DWIDTH 9 0
BBX 9 15 0 -3
BITMAP
0000
0000
3C00
4200
4000
4000
7C00
4200
4200
4200
4200
3C00
0000
0000
0000
ENDCHAR
STARTCHAR char55
ENCODING 55
SWIDTH 692 0
DWIDTH 9 0
BBX 9 15 0 -3
BITMAP
0000
0000
7E00
0200
0200
0400
0400
0400
0800
0800
0800
0800
0000
0000
0000
ENDCHAR
STARTCHAR char56
ENCODING 56
SWIDTH 692 0
DWIDTH 9 0
BBX 9 15 0 -3
BITMAP
0000
0000
3C00
4200
4200
4200
3C00
4200
4200
4200
4200
3C00
0000
0000
0000
ENDCHAR
STARTCHAR char57
ENCODING 57
SWIDTH 692 0
DWIDTH 9 0
BBX 9 15 0 -3
BITMAP
0000
0000
3C00
4200
4200
4200
3E00
0200
0200
0200
4200
3C00
0000
0000
0000
ENDCHAR
STARTCHAR char58
ENCODING 58
SWIDTH 692 0
DWIDTH 9 0
BBX 9 15 0 -3
BITMAP
0000
0000
0000
1800
1800
0000
0000
0000
0000
1800
1800
0000
0000
0000
0000
ENDCHAR
STARTCHAR char59
ENCODING 59
SWIDTH 692 0
DWIDTH 9 0
BBX 9 15 0 -3
BITMAP
0000
0000
0000
1800
1800
0000
0000
0000
0000
1800
0800
1000
0000
0000
0000
ENDCHAR
STARTCHAR char60
ENCODING 60
SWIDTH 692 0
DWIDTH 9 0
BBX 9 15 0 -3
BITMAP
0000
0000
0000
0400
0800
1000
2000
4000
2000
1000
0800
0400
0000
0000
0000
ENDCHAR
STARTCHAR char61
ENCODING 61
SWIDTH 692 0
DWIDTH 9 0
BBX 9 15 0 -3
BITMAP
0000
0000
0000
0000
0000
0000
FE00
0000
0000
FE00
0000
0000
0000
0000
0000
ENDCHAR
STARTCHAR char62
ENCODING 62
SWIDTH 692 0
DWIDTH 9 0
BBX 9 15 0 -3
BITMAP
0000
0000
0000
4000
2000
1000
0800
0400
0800
1000
2000
4000
0000
0000
0000
ENDCHAR
STARTCHAR char63
ENCODING 63
SWIDTH 692 0
DWIDTH 9 0
BBX 9 15 0 -3
BITMAP
0000
0000
7E00
8100
8100
0100
0600
0800
0800
0800
0000
0800
0000
0000
0000
ENDCHAR
STARTCHAR char64
ENCODING 64
SWIDTH 692 0
DWIDTH 9 0
BBX 9 15 0 -3
BITMAP
0000
0000
3C00
4200
8100
9D00
A300
A100
A300
9C00
4000
3C00
0000
0000
0000
ENDCHAR
STARTCHAR A
ENCODING 65
SWIDTH 692 0
DWIDTH 9 0
BBX 9 15 0 -3
BITMAP
0000
0000
3800
4400
8200
8200
8200
FE00
8200
8200
8200
8200
0000
0000
0000
ENDCHAR
STARTCHAR B
ENCODING 66
SWIDTH 692 0
DWIDTH 9 0
BBX 9 15 0 -3
BITMAP
0000
0000
FC00
8200
8200
8200
FC00
8200
8200
8200
8200
FC00
0000
0000
0000
ENDCHAR
STARTCHAR C
ENCODING 67
SWIDTH 692 0
DWIDTH 9 0
BBX 9 15 0 -3
BITMAP
0000
0000
7C00
8200
8000
8000
8000
8000
8000
8000
8200
7C00
0000
0000
0000
ENDCHAR
STARTCHAR D
ENCODING 68
SWIDTH 692 0
DWIDTH 9 0
BBX 9 15 0 -3
BITMAP
0000
0000
FC00
8200
8200
8200
8200
8200
8200
8200
8200
FC00
0000
0000
0000
ENDCHAR
STARTCHAR E
ENCODING 69
SWIDTH 692 0
DWIDTH 9 0
BBX 9 15 0 -3
BITMAP
0000
0000
FE00
8000
8000
8000
F800
8000
8000
8000
8000
FE00
0000
0000
0000
ENDCHAR
STARTCHAR F
ENCODING 70
SWIDTH 692 0
DWIDTH 9 0
BBX 9 15 0 -3
BITMAP
0000
0000
FE00
8000
8000
8000
F800
8000
8000
8000
8000
8000
0000
0000
0000
ENDCHAR
STARTCHAR G
ENCODING 71
SWIDTH 692 0
DWIDTH 9 0
BBX 9 15 0 -3
BITMAP
0000
0000
7C00
8200
8000
8000
8000
9E00
8200
8200
8200
7C00
0000
0000
0000
ENDCHAR
STARTCHAR char72
ENCODING 72
SWIDTH 692 0
DWIDTH 9 0
BBX 9 15 0 -3
BITMAP
0000
0000
8200
8200
8200
8200
FE00
8200
8200
8200
8200
8200
0000
0000
0000
ENDCHAR
STARTCHAR I
ENCODING 73
SWIDTH 692 0
DWIDTH 9 0
BBX 9 15 0 -3
BITMAP
0000
0000
3800
1000
1000
1000
1000
1000
1000
1000
1000
3800
0000
0000
0000
ENDCHAR
STARTCHAR J
ENCODING 74
SWIDTH 692 0
DWIDTH 9 0
BBX 9 15 0 -3
BITMAP
0000
0000
FE00
0200
0200
0200
0200
0200
0200
8200
8200
7C00
0000
0000
0000
ENDCHAR
STARTCHAR K
ENCODING 75
SWIDTH 692 0
DWIDTH 9 0
BBX 9 15 0 -3
BITMAP
0000
0000
8400
8800
9000
A000
C000
A000
9000
8800
8400
8200
0000
0000
0000
ENDCHAR
STARTCHAR L
ENCODING 76
SWIDTH 692 0
DWIDTH 9 0
BBX 9 15 0 -3
BITMAP
0000
0000
8000
8000
8000
8000
8000
8000
8000
8000
8000
FE00
0000
0000
0000
ENDCHAR
STARTCHAR M
ENCODING 77
SWIDTH 692 0
DWIDTH 9 0
BBX 9 15 0 -3
BITMAP
0000
0000
8200
C600
AA00
9200
8200
8200
8200
8200
8200
8200
0000
0000
0000
ENDCHAR
STARTCHAR N
ENCODING 78
SWIDTH 692 0
DWIDTH 9 0
BBX 9 15 0 -3
BITMAP
0000
0000
8200
C200
A200
A200
9200
9200
8A00
8A00
8600
8200
0000
0000
0000
ENDCHAR
STARTCHAR O
ENCODING 79
SWIDTH 692 0
DWIDTH 9 0
BBX 9 15 0 -3
BITMAP
0000
0000
7C00
8200
8200
8200
8200
8200
8200
8200
8200
7C00
0000
0000
0000
ENDCHAR
STARTCHAR P
ENCODING 80
SWIDTH 692 0
DWIDTH 9 0
BBX 9 15 0 -3
BITMAP
0000
0000
FC00
8200
8200
8200
FC00
8000
8000
8000
8000
8000
0000
0000
0000
ENDCHAR
STARTCHAR Q
ENCODING 81
SWIDTH 692 0
DWIDTH 9 0
BBX 9 15 0 -3
BITMAP
0000
0000
7C00
8200
8200
8200
8200
8200
8200
8A00
8400
7A00
0000
0000
0000
ENDCHAR
STARTCHAR R
ENCODING 82
SWIDTH 692 0
DWIDTH 9 0
BBX 9 15 0 -3
BITMAP
0000
0000
FC00
8200
8200
8200
FC00
A000
9000
8800
8400
8200
0000
0000
0000
ENDCHAR
STARTCHAR S
ENCODING 83
SWIDTH 692 0
DWIDTH 9 0
BBX 9 15 0 -3
BITMAP
0000
0000
7C00
8200
8000
8000
7C00
0200
0200
0200
8200
7C00
0000
0000
0000
ENDCHAR
STARTCHAR T
ENCODING 84
SWIDTH 692 0
DWIDTH 9 0
BBX 9 15 0 -3
BITMAP
0000
0000
FE00
1000
1000
1000
1000
1000
1000
1000
1000
1000
0000
0000
0000
ENDCHAR
STARTCHAR U
ENCODING 85
SWIDTH 692 0
DWIDTH 9 0
BBX 9 15 0 -3
BITMAP
0000
0000
8200
8200
8200
8200
8200
8200
8200
8200
8200
7C00
0000
0000
0000
ENDCHAR
STARTCHAR V
ENCODING 86
SWIDTH 692 0
DWIDTH 9 0
BBX 9 15 0 -3
BITMAP
0000
0000
8200
8200
8200
8200
4400
4400
4400
2800
2800
1000
0000
0000
0000
ENDCHAR
STARTCHAR W
ENCODING 87
SWIDTH 692 0
DWIDTH 9 0
BBX 9 15 0 -3
BITMAP
0000
0000
8200
8200
8200
8200
8200
8200
5400
5400
5400
2800
0000
0000
0000
ENDCHAR
STARTCHAR X
ENCODING 88
SWIDTH 692 0
DWIDTH 9 0
BBX 9 15 0 -3
BITMAP
0000
0000
8200
8200
4400
2800
1000
1000
2800
4400
8200
8200
0000
0000
0000
ENDCHAR
STARTCHAR Y
ENCODING 89
SWIDTH 692 0
DWIDTH 9 0
BBX 9 15 0 -3
BITMAP
0000
0000
8200
8200
4400
4400
2800
1000
1000
1000
1000
1000
0000
0000
0000
ENDCHAR
STARTCHAR Z
ENCODING 90
SWIDTH 692 0
DWIDTH 9 0
BBX 9 15 0 -3
BITMAP
0000
0000
FE00
0200
0400
0800
1000
2000
4000
8000
8000
FE00
0000
0000
0000
ENDCHAR
STARTCHAR bracketleft
ENCODING 91
SWIDTH 692 0
DWIDTH 9 0
BBX 9 15 0 -3
BITMAP
0000
0000
3000
2000
2000
2000
2000
2000
2000
2000
2000
3000
0000
0000
0000
ENDCHAR
STARTCHAR backslash
ENCODING 92
SWIDTH 692 0
DWIDTH 9 0
BBX 9 15 0 -3
BITMAP
0000
0000
4000
2000
2000
1000
1000
0800
0800
0400
0400
0200
0000
0000
0000
ENDCHAR
STARTCHAR char93
ENCODING 93
SWIDTH 692 0
DWIDTH 9 0
BBX 9 15 0 -3
BITMAP
0000
0000
1800
0800
0800
0800
0800
0800
0800
0800
0800
1800
0000
0000
0000
ENDCHAR
STARTCHAR char
ENCODING 94
SWIDTH 692 0
DWIDTH 9 0
BBX 9 15 0 -3
BITMAP
0000
0000
1000
2800
4400
8200
0000
0000
0000
0000
0000
0000
0000
0000
0000
ENDCHAR
STARTCHAR underscore
ENCODING 95
SWIDTH 692 0
DWIDTH 9 0
BBX 9 15 0 -3
BITMAP
0000
0000
0000
0000
0000
0000
0000
0000
0000
0000
0000
FF00
0000
0000
0000
ENDCHAR
STARTCHAR char96
ENCODING 96
SWIDTH 692 0
DWIDTH 9 0
BBX 9 15 0 -3
BITMAP
0000
0000
2000
2000
1000
0000
0000
0000
0000
0000
0000
0000
0000
0000
0000
ENDCHAR
STARTCHAR a
ENCODING 97
SWIDTH 692 0
DWIDTH 9 0
BBX 9 15 0 -3
BITMAP
0000
0000
0000
0000
7C00
8200
0200
7E00
8200
8200
8200
7D00
0000
0000
0000
ENDCHAR
STARTCHAR b
ENCODING 98
SWIDTH 692 0
DWIDTH 9 0
BBX 9 15 0 -3
BITMAP
0000
0000
8000
8000
BC00
C200
8200
8200
8200
8200
C200
BC00
0000
0000
0000
ENDCHAR
STARTCHAR c
ENCODING 99
SWIDTH 692 0
DWIDTH 9 0
BBX 9 15 0 -3
BITMAP
0000
0000
0000
0000
7C00
8200
8000
8000
8000
8000
8200
7C00
0000
0000
0000
ENDCHAR
STARTCHAR d
ENCODING 100
SWIDTH 692 0
DWIDTH 9 0
BBX 9 15 0 -3
BITMAP
0000
0000
0200
0200
7A00
8600
8200
8200
8200
8200
8600
7A00
0000
0000
0000
ENDCHAR
STARTCHAR e
ENCODING 101
SWIDTH 692 0
DWIDTH 9 0
BBX 9 15 0 -3
BITMAP
0000
0000
0000
0000
7C00
8200
8200
FC00
8000
8000
8200
7C00
0000
0000
0000
ENDCHAR
STARTCHAR f
ENCODING 102
SWIDTH 692 0
DWIDTH 9 0
BBX 9 15 0 -3
BITMAP
0000
3C00
4200
4000
4000
E000
4000
4000
4000
4000
4000
4000
0000
0000
0000
ENDCHAR
STARTCHAR g
ENCODING 103
SWIDTH 692 0
DWIDTH 9 0
BBX 9 15 0 -3
BITMAP
0000
0000
0000
0000
7D00
8200
8200
8200
8200
8200
7C00
4000
BE00
8100
7E00
ENDCHAR
STARTCHAR h
ENCODING 104
SWIDTH 692 0
DWIDTH 9 0
BBX 9 15 0 -3
BITMAP
0000
0000
8000
8000
BC00
C200
8200
8200
8200
8200
8200
8200
0000
0000
0000
ENDCHAR
STARTCHAR char105
ENCODING 105
SWIDTH 692 0
DWIDTH 9 0
BBX 9 15 0 -3
BITMAP
0000
0000
1000
0000
3000
1000
1000
1000
1000
1000
1000
7C00
0000
0000
0000
ENDCHAR
STARTCHAR j
ENCODING 106
SWIDTH 692 0
DWIDTH 9 0
BBX 9 15 0 -3
BITMAP
0000
0000
0200
0000
0E00
0200
0200
0200
0200
0200
0200
0200
4200
3C00
0000
ENDCHAR
STARTCHAR k
ENCODING 107
SWIDTH 692 0
DWIDTH 9 0
BBX 9 15 0 -3
BITMAP
0000
8000
8000
8400
8800
9000
A000
E000
9000
8800
8400
8200
0000
0000
0000
ENDCHAR
STARTCHAR l
ENCODING 108
SWIDTH 692 0
DWIDTH 9 0
BBX 9 15 0 -3
BITMAP
0000
0000
3000
1000
1000
1000
1000
1000
1000
1000
1000
7C00
0000
0000
0000
ENDCHAR
STARTCHAR m
ENCODING 109
SWIDTH 692 0
DWIDTH 9 0
BBX 9 15 0 -3
BITMAP
0000
0000
0000
0000
EC00
9200
9200
9200
9200
9200
9200
9200
0000
0000
0000
ENDCHAR
STARTCHAR n
ENCODING 110
SWIDTH 692 0
DWIDTH 9 0
BBX 9 15 0 -3
BITMAP
0000
0000
0000
0000
FC00
8200
8200
8200
8200
8200
8200
8200
0000
0000
0000
ENDCHAR
STARTCHAR o
ENCODING 111
SWIDTH 692 0
DWIDTH 9 0
BBX 9 15 0 -3
BITMAP
0000
0000
0000
0000
7C00
8200
8200
8200
8200
8200
8200
7C00
0000
0000
0000
ENDCHAR
STARTCHAR p
ENCODING 112
SWIDTH 692 0
DWIDTH 9 0
BBX 9 15 0 -3
BITMAP
0000
0000
0000
0000
BC00
C200
8200
8200
8200
8200
C200
BC00
8000
8000
8000
ENDCHAR
STARTCHAR q
ENCODING 113
SWIDTH 692 0
DWIDTH 9 0
BBX 9 15 0 -3
BITMAP
0000
0000
0000
0000
7A00
8600
8200
8200
8200
8200
8600
7A00
0200
0200
0200
ENDCHAR
STARTCHAR r
ENCODING 114
SWIDTH 692 0
DWIDTH 9 0
BBX 9 15 0 -3
BITMAP
0000
0000
0000
0000
BC00
C200
8000
8000
8000
8000
8000
8000
0000
0000
0000
ENDCHAR
STARTCHAR s
ENCODING 115
SWIDTH 692 0
DWIDTH 9 0
BBX 9 15 0 -3
BITMAP
0000
0000
0000
0000
7C00
8200
8000
7C00
0200
0200
8200
7C00
0000
0000
0000
ENDCHAR
STARTCHAR t
ENCODING 116
SWIDTH 692 0
DWIDTH 9 0
BBX 9 15 0 -3
BITMAP
0000
0000
4000
4000
F000
4000
4000
4000
4000
4000
4200
3C00
0000
0000
0000
ENDCHAR
STARTCHAR u
ENCODING 117
SWIDTH 692 0
DWIDTH 9 0
BBX 9 15 0 -3
BITMAP
0000
0000
0000
0000
8200
8200
8200
8200
8200
8200
8600
7A00
0000
0000
0000
ENDCHAR
STARTCHAR v
ENCODING 118
SWIDTH 692 0
DWIDTH 9 0
BBX 9 15 0 -3
BITMAP
0000
0000
0000
0000
8200
8200
8200
8200
4400
4400
2800
1000
0000
0000
0000
ENDCHAR
STARTCHAR w
ENCODING 119
SWIDTH 692 0
DWIDTH 9 0
BBX 9 15 0 -3
BITMAP
0000
0000
0000
0000
8200
9200
9200
9200
9200
9200
9200
6C00
0000
0000
0000
ENDCHAR
STARTCHAR x
ENCODING 120
SWIDTH 692 0
DWIDTH 9 0
BBX 9 15 0 -3
BITMAP
0000
0000
0000
0000
8200
4400
2800
1000
1000
2800
4400
8200
0000
0000
0000
ENDCHAR
STARTCHAR y
ENCODING 121
SWIDTH 692 0
DWIDTH 9 0
BBX 9 15 0 -3
BITMAP
0000
0000
0000
0000
8200
8200
8200
8200
8200
8600
7A00
0200
0200
0400
3800
ENDCHAR
STARTCHAR z
ENCODING 122
SWIDTH 692 0
DWIDTH 9 0
BBX 9 15 0 -3
BITMAP
0000
0000
0000
0000
FE00
0400
0800
1000
2000
4000
8000
FE00
0000
0000
0000
ENDCHAR
STARTCHAR braceleft
ENCODING 123
SWIDTH 692 0
DWIDTH 9 0
BBX 9 15 0 -3
BITMAP
0000
1800
2000
2000
2000
1000
2000
1000
2000
2000
2000
1800
0000
0000
0000
ENDCHAR
STARTCHAR bar
ENCODING 124
SWIDTH 692 0
DWIDTH 9 0
BBX 9 15 0 -3
BITMAP
0000
0000
1000
1000
1000
1000
1000
1000
1000
1000
1000
1000
0000
0000
0000
ENDCHAR
STARTCHAR braceright
ENCODING 125
SWIDTH 692 0
DWIDTH 9 0
BBX 9 15 0 -3
BITMAP
0000
1800
0400
0400
0400
0800
0400
0800
0400
0400
0400
1800
0000
0000
0000
ENDCHAR
STARTCHAR tilda
ENCODING 126
SWIDTH 692 0
DWIDTH 9 0
BBX 9 15 0 -3
BITMAP
0000
0000
0000
0000
0000
6000
9200
0C00
0000
0000
0000
0000
0000
0000
0000
ENDCHAR
STARTCHAR Aogonek
ENCODING 161
SWIDTH 692 0
DWIDTH 9 0
BBX 9 15 0 -3
BITMAP
0000
0003
3004
4804
4808
8408
840F
FC08
8408
8408
8400
0000
0000
000E
0A47
ENDCHAR
STARTCHAR Lslash
ENCODING 163
SWIDTH 692 0
DWIDTH 9 0
BBX 9 15 0 -3
BITMAP
0000
0004
4004
4005
5006
6004
400C
C004
4004
4007
7E00
0000
0000
000E
7265
ENDCHAR
STARTCHAR currency
ENCODING 164
SWIDTH 692 0
DWIDTH 9 0
BBX 9 15 0 -3
BITMAP
0000
0002
2D01
1202
2102
2101
1202
2D00
0000
0000
0000
0000
0000
000E
636F
ENDCHAR
STARTCHAR Lcaron
ENCODING 165
SWIDTH 692 0
DWIDTH 9 0
BBX 9 15 0 -3
BITMAP
3001
100A
A008
8008
8008
8008
8008
8008
8008
800F
FC00
0000
0000
000E
3520
ENDCHAR
STARTCHAR Sacute
ENCODING 166
SWIDTH 692 0
DWIDTH 9 0
BBX 9 15 0 -3
BITMAP
1002
2000
0007
7808
8408
8007
7800
0400
0408
8407
7800
0000
0000
000E
0A47
ENDCHAR
STARTCHAR section
ENCODING 167
SWIDTH 692 0
DWIDTH 9 0
BBX 9 15 0 -3
BITMAP
0000
0000
0E01
1100
0801
1401
1200
0900
0500
0201
1100
0E00
0000
000E
7265
ENDCHAR
STARTCHAR Scaron
ENCODING 169
SWIDTH 692 0
DWIDTH 9 0
BBX 9 15 0 -3
BITMAP
4803
3000
0007
7808
8408
8007
7800
0400
0408
8407
7800
0000
0000
000E
636F
ENDCHAR
STARTCHAR Scedilla
ENCODING 170
SWIDTH 692 0
DWIDTH 9 0
BBX 9 15 0 -3
BITMAP
0000
0007
7808
8408
8008
8007
7800
0400
0408
8407
7802
2002
2001
100E
3820
ENDCHAR
STARTCHAR Tcaron
ENCODING 171
SWIDTH 692 0
DWIDTH 9 0
BBX 9 15 0 -3
BITMAP
2801
1000
0007
7C01
1001
1001
1001
1001
1001
1001
1000
0000
0000
000E
0A47
ENDCHAR
STARTCHAR Zacute
ENCODING 172
SWIDTH 692 0
DWIDTH 9 0
BBX 9 15 0 -3
BITMAP
0801
1000
0007
7C00
0400
0801
1002
2004
4004
4007
7C00
0000
0000
000E
7265
ENDCHAR
STARTCHAR Zcaron
ENCODING 174
SWIDTH 692 0
DWIDTH 9 0
BBX 9 15 0 -3
BITMAP
2801
1000
0007
7C00
0400
0801
1002
2004
4004
4007
7C00
0000
0000
000E
636F
ENDCHAR
STARTCHAR Zdotaccent
ENCODING 175
SWIDTH 692 0
DWIDTH 9 0
BBX 9 15 0 -3
BITMAP
0001
1000
0007
7C00
0400
0801
1002
2004
4004
4007
7C00
0000
0000
000E
3520
ENDCHAR
STARTCHAR degree
ENCODING 176
SWIDTH 692 0
DWIDTH 9 0
BBX 9 15 0 -3
BITMAP
3004
4804
4803
3000
0000
0000
0000
0000
0000
0000
0000
0000
0000
000E
0A47
ENDCHAR
STARTCHAR aogonek
ENCODING 177
SWIDTH 692 0
DWIDTH 9 0
BBX 9 15 0 -3
BITMAP
0000
0000
0000
0007
7808
8400
0407
7C08
8408
8407
7A02
2002
2001
100E
7265
ENDCHAR
STARTCHAR lslash
ENCODING 179
SWIDTH 692 0
DWIDTH 9 0
BBX 9 15 0 -3
BITMAP
0000
0003
3001
1401
1801
1003
3005
5001
1001
1007
7C00
0000
0000
000E
636F
ENDCHAR
STARTCHAR acute
ENCODING 180
SWIDTH 692 0
DWIDTH 9 0
BBX 9 15 0 -3
BITMAP
0801
1000
0000
0000
0000
0000
0000
0000
0000
0000
0000
0000
0000
000E
3220
ENDCHAR
STARTCHAR lcaron
ENCODING 181
SWIDTH 692 0
DWIDTH 9 0
BBX 9 15 0 -3
BITMAP
0C00
0403
3801
1001
1001
1001
1001
1001
1001
1007
7C00
0000
0000
000E
0A47
ENDCHAR
STARTCHAR sacute
ENCODING 182
SWIDTH 692 0
DWIDTH 9 0
BBX 9 15 0 -3
BITMAP
0001
1002
2000
0007
7808
8408
8007
7800
0408
8407
7800
0000
0000
000E
7265
ENDCHAR
STARTCHAR caron
ENCODING 183
SWIDTH 692 0
DWIDTH 9 0
BBX 9 15 0 -3
BITMAP
2401
1800
0000
0000
0000
0000
0000
0000
0000
0000
0000
0000
0000
000E
636F
ENDCHAR
STARTCHAR scaron
ENCODING 185
SWIDTH 692 0
DWIDTH 9 0
BBX 9 15 0 -3
BITMAP
0004
4803
3000
0007
7808
8408
8007
7800
0408
8407
7800
0000
0000
000E
3920
ENDCHAR
STARTCHAR scedilla
ENCODING 186
SWIDTH 692 0
DWIDTH 9 0
BBX 9 15 0 -3
BITMAP
0000
0000
0000
0007
7808
8408
8007
7800
0408
8407
7802
2002
2001
100E
0A47
ENDCHAR
STARTCHAR tcaron
ENCODING 187
SWIDTH 692 0
DWIDTH 9 0
BBX 9 15 0 -3
BITMAP
0000
0C04
4404
480F
F004
4004
4004
4004
4004
4403
3800
0000
0000
000E
7265
ENDCHAR
STARTCHAR zacute
ENCODING 188
SWIDTH 692 0
DWIDTH 9 0
BBX 9 15 0 -3
BITMAP
0001
1002
2000
000F
FC00
0400
0803
3004
4008
800F
FC00
0000
0000
000E
636F
ENDCHAR
STARTCHAR zcaron
ENCODING 190
SWIDTH 692 0
DWIDTH 9 0
BBX 9 15 0 -3
BITMAP
0004
4803
3000
000F
FC00
0400
0803
3004
4008
800F
FC00
0000
0000
000E
3620
ENDCHAR
STARTCHAR zdotaccent
ENCODING 191
SWIDTH 692 0
DWIDTH 9 0
BBX 9 15 0 -3
BITMAP
0000
0003
3000
000F
FC00
0400
0803
3004
4008
800F
FC00
0000
0000
000E
0A47
ENDCHAR
STARTCHAR Racute
ENCODING 192
SWIDTH 692 0
DWIDTH 9 0
BBX 9 15 0 -3
BITMAP
1002
2000
000F
F808
8408
8408
840F
F809
9008
8808
8400
0000
0000
000E
7265
ENDCHAR
STARTCHAR Aacute
ENCODING 193
SWIDTH 692 0
DWIDTH 9 0
BBX 9 15 0 -3
BITMAP
1002
2000
0003
3004
4804
4808
840F
FC08
8408
8408
8400
0000
0000
000E
636F
ENDCHAR
STARTCHAR Acircumflex
ENCODING 194
SWIDTH 692 0
DWIDTH 9 0
BBX 9 15 0 -3
BITMAP
3004
4800
0003
3004
4804
4808
840F
FC08
8408
8408
8400
0000
0000
000E
3320
ENDCHAR
STARTCHAR Abreve
ENCODING 195
SWIDTH 692 0
DWIDTH 9 0
BBX 9 15 0 -3
BITMAP
4803
3000
0003
3004
4804
4808
840F
FC08
8408
8408
8400
0000
0000
000E
0A47
ENDCHAR
STARTCHAR Adieresis
ENCODING 196
SWIDTH 692 0
DWIDTH 9 0
BBX 9 15 0 -3
BITMAP
4800
0003
3004
4804
4808
8408
840F
FC08
8408
8408
8400
0000
0000
000E
7265
ENDCHAR
STARTCHAR Lacute
ENCODING 197
SWIDTH 692 0
DWIDTH 9 0
BBX 9 15 0 -3
BITMAP
2004
4000
0008
8008
8008
8008
8008
8008
8008
800F
FC00
0000
0000
000E
636F
ENDCHAR
STARTCHAR Cacute
ENCODING 198
SWIDTH 692 0
DWIDTH 9 0
BBX 9 15 0 -3
BITMAP
1002
2000
0007
7808
8408
8008
8008
8008
8008
8407
7800
0000
0000
000E
3020
ENDCHAR
STARTCHAR Ccedilla
ENCODING 199
SWIDTH 692 0
DWIDTH 9 0
BBX 9 15 0 -3
BITMAP
0000
0007
7808
8408
8008
8008
8008
8008
8008
8407
7802
2002
2001
100E
0A47
ENDCHAR
STARTCHAR Ccaron
ENCODING 200
SWIDTH 692 0
DWIDTH 9 0
BBX 9 15 0 -3
BITMAP
4803
3000
0007
7808
8408
8008
8008
8008
8008
8407
7800
0000
0000
000E
7265
ENDCHAR
STARTCHAR Eacute
ENCODING 201
SWIDTH 692 0
DWIDTH 9 0
BBX 9 15 0 -3
BITMAP
1002
2000
000F
FC08
8008
800F
F008
8008
8008
800F
FC00
0000
0000
000E
636F
ENDCHAR
STARTCHAR Eogonek
ENCODING 202
SWIDTH 692 0
DWIDTH 9 0
BBX 9 15 0 -3
BITMAP
0000
000F
FC08
8008
8008
800F
F008
8008
8008
800F
FC02
2002
2001
100E
3720
ENDCHAR
STARTCHAR Edieresis
ENCODING 203
SWIDTH 692 0
DWIDTH 9 0
BBX 9 15 0 -3
BITMAP
0004
4800
000F
FC08
8008
800F
F008
8008
8008
800F
FC00
0000
0000
000E
0A47
ENDCHAR
STARTCHAR Ecaron
ENCODING 204
SWIDTH 692 0
DWIDTH 9 0
BBX 9 15 0 -3
BITMAP
4803
3000
000F
FC08
8008
800F
F008
8008
8008
800F
FC00
0000
0000
000E
7265
ENDCHAR
STARTCHAR Iacute
ENCODING 205
SWIDTH 692 0
DWIDTH 9 0
BBX 9 15 0 -3
BITMAP
0801
1000
0003
3801
1001
1001
1001
1001
1001
1003
3800
0000
0000
000E
636F
ENDCHAR
STARTCHAR Icircumflex
ENCODING 206
SWIDTH 692 0
DWIDTH 9 0
BBX 9 15 0 -3
BITMAP
1002
2800
0003
3801
1001
1001
1001
1001
1001
1003
3800
0000
0000
000E
3420
ENDCHAR
STARTCHAR Dcaron
ENCODING 207
SWIDTH 692 0
DWIDTH 9 0
BBX 9 15 0 -3
BITMAP
4803
3000
000F
F808
8408
8408
8408
8408
8408
840F
F800
0000
0000
000E
0A47
ENDCHAR
STARTCHAR Dcroat
ENCODING 208
SWIDTH 692 0
DWIDTH 9 0
BBX 9 15 0 -3
BITMAP
0000
000F
F808
8408
8408
840E
E408
8408
8408
840F
F800
0000
0000
000E
7265
ENDCHAR
STARTCHAR Nacute
ENCODING 209
SWIDTH 692 0
DWIDTH 9 0
BBX 9 15 0 -3
BITMAP
0801
1000
0008
840C
C40C
C40A
A409
9408
8C08
8C08
8400
0000
0000
000E
636F
ENDCHAR
STARTCHAR Ncaron
ENCODING 210
SWIDTH 692 0
DWIDTH 9 0
BBX 9 15 0 -3
BITMAP
4803
3000
0008
840C
C40C
C40A
A409
9408
8C08
8C08
8400
0000
0000
000E
3130
ENDCHAR
STARTCHAR Oacute
ENCODING 211
SWIDTH 692 0
DWIDTH 9 0
BBX 9 15 0 -3
BITMAP
1002
2000
0007
7808
8408
8408
8408
8408
8408
8407
7800
0000
0000
000E
6564
ENDCHAR
STARTCHAR Ocircumflex
ENCODING 212
SWIDTH 692 0
DWIDTH 9 0
BBX 9 15 0 -3
BITMAP
3004
4800
0007
7808
8408
8408
8408
8408
8408
8407
7800
0000
0000
000E
756D
ENDCHAR
STARTCHAR Ohungarumlaut
ENCODING 213
SWIDTH 692 0
DWIDTH 9 0
BBX 9 15 0 -3
BITMAP
2404
4800
0007
7808
8408
8408
8408
8408
8408
8407
7800
0000
0000
000E
6F6C
ENDCHAR
STARTCHAR Odieresis
ENCODING 214
SWIDTH 692 0
DWIDTH 9 0
BBX 9 15 0 -3
BITMAP
0004
4800
0007
7808
8408
8408
8408
8408
8408
8407
7800
0000
0000
000E
3038
ENDCHAR
STARTCHAR Rcaron
ENCODING 216
SWIDTH 692 0
DWIDTH 9 0
BBX 9 15 0 -3
BITMAP
4803
3000
000F
F808
8408
8408
840F
F809
9008
8808
8400
0000
0000
000E
642E
ENDCHAR
STARTCHAR Uring
ENCODING 217
SWIDTH 692 0
DWIDTH 9 0
BBX 9 15 0 -3
BITMAP
3004
4803
3008
8408
8408
8408
8408
8408
8408
8407
7800
0000
0000
000E
6D6E
ENDCHAR
STARTCHAR Uacute
ENCODING 218
SWIDTH 692 0
DWIDTH 9 0
BBX 9 15 0 -3
BITMAP
1002
2000
0008
8408
8408
8408
8408
8408
8408
8407
7800
0000
0000
000E
6578
ENDCHAR
STARTCHAR Uhungarumlaut
ENCODING 219
SWIDTH 692 0
DWIDTH 9 0
BBX 9 15 0 -3
BITMAP
2404
4800
0008
8408
8408
8408
8408
8408
8408
8407
7800
0000
0000
000E
3520
ENDCHAR
STARTCHAR Udieresis
ENCODING 220
SWIDTH 692 0
DWIDTH 9 0
BBX 9 15 0 -3
BITMAP
0004
4800
0008
8408
8408
8408
8408
8408
8408
8407
7800
0000
0000
000E
2E0A
ENDCHAR
STARTCHAR Yacute
ENCODING 221
SWIDTH 692 0
DWIDTH 9 0
BBX 9 15 0 -3
BITMAP
0801
1000
0004
4404
4402
2802
2801
1001
1001
1001
1000
0000
0000
000E
6E73
ENDCHAR
STARTCHAR Tcommaaccent
ENCODING 222
SWIDTH 692 0
DWIDTH 9 0
BBX 9 15 0 -3
BITMAP
0000
000F
F802
2002
2002
2002
2002
2002
2002
2002
2002
2002
2001
100E
0000
ENDCHAR
STARTCHAR germandbls
ENCODING 223
SWIDTH 692 0
DWIDTH 9 0
BBX 9 15 0 -3
BITMAP
0000
0000
0E01
1101
1101
1601
1101
1101
1601
1001
1000
0000
0000
000E
642E
ENDCHAR
STARTCHAR racute
ENCODING 224
SWIDTH 692 0
DWIDTH 9 0
BBX 9 15 0 -3
BITMAP
0000
0801
1000
000B
B80C
C408
8008
8008
8008
8008
8000
0000
0000
000E
7265
ENDCHAR
STARTCHAR aacute
ENCODING 225
SWIDTH 692 0
DWIDTH 9 0
BBX 9 15 0 -3
BITMAP
0001
1002
2000
0007
7808
8400
0407
7C08
8408
8407
7A00
0000
0000
000E
636F
ENDCHAR
STARTCHAR acircumflex
ENCODING 226
SWIDTH 692 0
DWIDTH 9 0
BBX 9 15 0 -3
BITMAP
0003
3004
4800
0007
7808
8400
0407
7C08
8408
8407
7A00
0000
0000
000E
3420
ENDCHAR
STARTCHAR abreve
ENCODING 227
SWIDTH 692 0
DWIDTH 9 0
BBX 9 15 0 -3
BITMAP
0004
4803
3000
0007
7808
8400
0407
7C08
8408
8407
7A00
0000
0000
000E
0A47
ENDCHAR
STARTCHAR adieresis
ENCODING 228
SWIDTH 692 0
DWIDTH 9 0
BBX 9 15 0 -3
BITMAP
0000
0004
4800
0007
7808
8400
0407
7C08
8408
8407
7A00
0000
0000
000E
7265
ENDCHAR
STARTCHAR lacute
ENCODING 229
SWIDTH 692 0
DWIDTH 9 0
BBX 9 15 0 -3
BITMAP
2801
1000
0003
3001
1001
1001
1001
1001
1001
1007
7C00
0000
0000
000E
636F
ENDCHAR
STARTCHAR cacute
ENCODING 230
SWIDTH 692 0
DWIDTH 9 0
BBX 9 15 0 -3
BITMAP
0001
1002
2000
0007
7808
8408
8008
8008
8008
8407
7800
0000
0000
000E
3120
ENDCHAR
STARTCHAR ccedilla
ENCODING 231
SWIDTH 692 0
DWIDTH 9 0
BBX 9 15 0 -3
BITMAP
0000
0000
0000
0007
7808
8408
8008
8008
8008
8407
7802
2002
2001
100E
0A47
ENDCHAR
STARTCHAR ccaron
ENCODING 232
SWIDTH 692 0
DWIDTH 9 0
BBX 9 15 0 -3
BITMAP
0004
4803
3000
0007
7808
8408
8008
8008
8008
8407
7800
0000
0000
000E
7265
ENDCHAR
STARTCHAR eacute
ENCODING 233
SWIDTH 692 0
DWIDTH 9 0
BBX 9 15 0 -3
BITMAP
0001
1002
2000
0007
7808
8408
840F
F808
8008
8407
7800
0000
0000
000E
636F
ENDCHAR
STARTCHAR eogonek
ENCODING 234
SWIDTH 692 0
DWIDTH 9 0
BBX 9 15 0 -3
BITMAP
0000
0000
0000
0007
7808
8408
840F
F808
8008
8407
7802
2002
2001
100E
3420
ENDCHAR
STARTCHAR edieresis
ENCODING 235
SWIDTH 692 0
DWIDTH 9 0
BBX 9 15 0 -3
BITMAP
0000
0004
4800
0007
7808
8408
840F
F808
8008
8407
7800
0000
0000
000E
0A47
ENDCHAR
STARTCHAR ecaron
ENCODING 236
SWIDTH 692 0
DWIDTH 9 0
BBX 9 15 0 -3
BITMAP
0004
4803
3000
0007
7808
8408
840F
F808
8008
8407
7800
0000
0000
000E
7265
ENDCHAR
STARTCHAR iacute
ENCODING 237
SWIDTH 692 0
DWIDTH 9 0
BBX 9 15 0 -3
BITMAP
0000
0801
1000
0003
3001
1001
1001
1001
1001
1007
7C00
0000
0000
000E
636F
ENDCHAR
STARTCHAR icircumflex
ENCODING 238
SWIDTH 692 0
DWIDTH 9 0
BBX 9 15 0 -3
BITMAP
0001
1002
2800
0003
3001
1001
1001
1001
1001
1007
7C00
0000
0000
000E
3120
ENDCHAR
STARTCHAR dcaron
ENCODING 239
SWIDTH 692 0
DWIDTH 9 0
BBX 9 15 0 -3
BITMAP
0600
0200
0600
0407
7408
8C08
8408
8408
8408
8C07
7400
0000
0000
000E
0A47
ENDCHAR
STARTCHAR dcroat
ENCODING 240
SWIDTH 692 0
DWIDTH 9 0
BBX 9 15 0 -3
BITMAP
0000
0400
0E00
0407
7408
8C08
8408
8408
8408
8C07
7400
0000
0000
000E
7265
ENDCHAR
STARTCHAR nacute
ENCODING 241
SWIDTH 692 0
DWIDTH 9 0
BBX 9 15 0 -3
BITMAP
0001
1002
2000
000F
F808
8408
8408
8408
8408
8408
8400
0000
0000
000E
636F
ENDCHAR
STARTCHAR ncaron
ENCODING 242
SWIDTH 692 0
DWIDTH 9 0
BBX 9 15 0 -3
BITMAP
0004
4803
3000
000F
F808
8408
8408
8408
8408
8408
8400
0000
0000
000E
3820
ENDCHAR
STARTCHAR oacute
ENCODING 243
SWIDTH 692 0
DWIDTH 9 0
BBX 9 15 0 -3
BITMAP
0001
1002
2000
0007
7808
8408
8408
8408
8408
8407
7800
0000
0000
000E
0A47
ENDCHAR
STARTCHAR ocircumflex
ENCODING 244
SWIDTH 692 0
DWIDTH 9 0
BBX 9 15 0 -3
BITMAP
0003
3004
4800
0007
7808
8408
8408
8408
8408
8407
7800
0000
0000
000E
7265
ENDCHAR
STARTCHAR ohungarumlaut
ENCODING 245
SWIDTH 692 0
DWIDTH 9 0
BBX 9 15 0 -3
BITMAP
0002
2404
4800
0007
7808
8408
8408
8408
8408
8407
7800
0000
0000
000E
7265
ENDCHAR
STARTCHAR odieresis
ENCODING 246
SWIDTH 692 0
DWIDTH 9 0
BBX 9 15 0 -3
BITMAP
0000
0004
4800
0007
7808
8408
8408
8408
8408
8407
7800
0000
0000
000E
636F
ENDCHAR
STARTCHAR rcaron
ENCODING 248
SWIDTH 692 0
DWIDTH 9 0
BBX 9 15 0 -3
BITMAP
0004
4803
3000
000B
B80C
C408
8008
8008
8008
8008
8000
0000
0000
000E
3720
ENDCHAR
STARTCHAR uring
ENCODING 249
SWIDTH 692 0
DWIDTH 9 0
BBX 9 15 0 -3
BITMAP
0003
3004
4803
3008
8408
8408
8408
8408
8408
8C07
7400
0000
0000
000E
0A47
ENDCHAR
STARTCHAR uacute
ENCODING 250
SWIDTH 692 0
DWIDTH 9 0
BBX 9 15 0 -3
BITMAP
0001
1002
2000
0008
8408
8408
8408
8408
8408
8C07
7400
0000
0000
000E
7265
ENDCHAR
STARTCHAR uhungarumlaut
ENCODING 251
SWIDTH 692 0
DWIDTH 9 0
BBX 9 15 0 -3
BITMAP
0002
2404
4800
0008
8408
8408
8408
8408
8408
8C07
7400
0000
0000
000E
7265
ENDCHAR
STARTCHAR udieresis
ENCODING 252
SWIDTH 692 0
DWIDTH 9 0
BBX 9 15 0 -3
BITMAP
0000
0004
4800
0008
8408
8408
8408
8408
8408
8C07
7400
0000
0000
000E
636F
ENDCHAR
STARTCHAR y.dup1
ENCODING 253
SWIDTH 692 0
DWIDTH 9 0
BBX 9 15 0 -3
BITMAP
0001
1002
2000
0008
8408
8408
8408
8408
8C07
7400
0400
0400
0807
700E
3620
ENDCHAR
STARTCHAR tcommaaccent
ENCODING 254
SWIDTH 692 0
DWIDTH 9 0
BBX 9 15 0 -3
BITMAP
0000
0004
4004
400F
F004
4004
4004
4004
4004
4403
3801
1001
1000
080E
3820
ENDCHAR
ENDFONT
